<svg height="256px" width="256px" version="1.1" id="Layer_1" xmlns="http://www.w3.org/2000/svg" xmlns:xlink="http://www.w3.org/1999/xlink" viewBox="-97.28 -97.28 706.56 706.56" xml:space="preserve" fill="#000000"><g id="SVGRepo_bgCarrier" stroke-width="0"></g><g id="SVGRepo_tracerCarrier" stroke-linecap="round" stroke-linejoin="round"></g><g id="SVGRepo_iconCarrier"> <path style="fill:#ffffff;" d="M488.727,197.818v116.364l-46.545,23.273v139.636c0,12.858-10.415,23.273-23.273,23.273h-46.545 c-12.858,0-23.273-10.415-23.273-23.273V337.455l-46.545-23.273V197.818c0-18.851,12.102-38.167,34.909-46.545 c11.055-3.956,23.273-11.636,23.273-11.636c19.316,15.476,50.502,15.476,69.818,0c0,0,23.855,7.68,34.909,11.636 C488.262,159.651,488.727,178.967,488.727,197.818z"></path> <path style="fill:#ffffff;" d="M58.182,256l11.636-71.61c0,0,0.465-26.589,23.273-33.036c11.055-3.037,23.273-11.718,23.273-11.718 c19.316,11.904,50.502,11.904,69.818,0c0,0,12.218,8.681,23.273,11.729c22.807,6.447,23.273,33.036,23.273,33.036L244.364,256"></path> <g> <path style="fill:#000000;" d="M469.376,140.323c-11.171-4.003-35.258-11.764-35.258-11.764c-3.735-1.21-7.808-0.454-10.845,2.001 c-14.976,11.997-40.297,11.997-55.273,0c-3.875-3.107-9.286-3.398-13.463-0.768c-3.107,1.955-12.905,7.633-21.085,10.566 c-25.844,9.484-42.543,32.035-42.543,57.46v46.545h-36.643l-9.926-61.079c-0.535-13.265-7.715-36.329-31.791-43.136 c-7.377-2.036-16.675-7.913-19.642-9.996c-3.793-2.7-8.855-2.863-12.835-0.419c-15.616,9.635-41.996,9.635-57.612,0 c-3.98-2.444-9.03-2.281-12.835,0.419c-2.967,2.095-12.265,7.971-19.7,10.019c-24.017,6.784-31.197,29.847-31.732,43.113 l-9.914,61.079H23.273c-6.435,0-11.636,5.201-11.636,11.636c0,6.435,5.201,11.636,11.636,11.636h267.636v46.545 c0,4.41,2.49,8.436,6.435,10.415l40.111,20.049v132.445c0,19.247,15.663,34.909,34.909,34.909h46.545 c19.247,0,34.909-15.663,34.909-34.909V344.646l40.111-20.061c3.945-1.967,6.435-5.993,6.435-10.403V197.818 C500.364,179.456,500.364,151.692,469.376,140.323z M81.303,186.263c0.093-0.547,0.14-1.105,0.151-1.664 c0-0.186,0.477-18.001,14.732-22.028c7.75-2.141,15.558-6.307,20.771-9.46c20.527,9.414,48.116,9.414,68.631,0 c5.213,3.153,12.998,7.331,20.701,9.449c14.045,3.98,14.778,21.388,14.79,22.051c0.012,0.559,0.058,1.117,0.151,1.664l9.449,58.089 h-21.225v-23.273c0-6.435-5.201-11.636-11.636-11.636s-11.636,5.201-11.636,11.636v23.273h-69.818v-23.273 c0-6.435-5.201-11.636-11.636-11.636c-6.435,0-11.636,5.201-11.636,11.636v23.273H71.866L81.303,186.263z M477.091,306.991 l-23.273,11.636v-74.263c0-6.435-5.201-11.636-11.636-11.636c-6.435,0-11.636,5.201-11.636,11.636v93.091v139.636 c0,6.423-5.213,11.636-11.636,11.636h-11.636V337.455c0-6.435-5.201-11.636-11.636-11.636c-6.435,0-11.636,5.201-11.636,11.636 v151.273h-11.636c-6.423,0-11.636-5.213-11.636-11.636V337.455v-93.091c0-6.435-5.201-11.636-11.636-11.636 s-11.636,5.201-11.636,11.636v74.263l-23.273-11.636V197.818c0-15.558,10.705-29.533,27.194-35.596 c6.807-2.432,13.859-6.063,18.839-8.809c21.644,12.975,51.025,12.672,72.308-0.908c7.657,2.49,21.376,6.993,28.916,9.681 c14.173,5.213,15.651,14.86,15.651,35.631V306.991z"></path> <path style="fill:#000000;" d="M395.636,116.364c32.081,0,58.182-26.1,58.182-58.182S427.718,0,395.636,0 s-58.182,26.1-58.182,58.182S363.555,116.364,395.636,116.364z M395.636,23.273c19.247,0,34.909,15.663,34.909,34.909 s-15.663,34.909-34.909,34.909c-19.247,0-34.909-15.663-34.909-34.909S376.39,23.273,395.636,23.273z"></path> <path style="fill:#000000;" d="M151.273,116.364c32.081,0,58.182-26.1,58.182-58.182S183.354,0,151.273,0 S93.091,26.1,93.091,58.182S119.191,116.364,151.273,116.364z M151.273,23.273c19.247,0,34.909,15.663,34.909,34.909 s-15.663,34.909-34.909,34.909s-34.909-15.663-34.909-34.909S132.026,23.273,151.273,23.273z"></path> </g> <g> <circle style="fill:#FFFFFF;" cx="395.636" cy="58.182" r="34.909"></circle> <circle style="fill:#FFFFFF;" cx="151.273" cy="58.182" r="34.909"></circle> </g> </g></svg>