<svg fill="#2bb3c0" height="256px" width="256px" version="1.1" id="Layer_1" xmlns="http://www.w3.org/2000/svg" xmlns:xlink="http://www.w3.org/1999/xlink" viewBox="-128 -128 768.00 768.00" xml:space="preserve" stroke="#2bb3c0" stroke-width="7.168000000000001"><g id="SVGRepo_bgCarrier" stroke-width="0"></g><g id="SVGRepo_tracerCarrier" stroke-linecap="round" stroke-linejoin="round"></g><g id="SVGRepo_iconCarrier"> <g> <g> <path d="M368,96h-64V21.333h21.333c5.891,0,10.667-4.776,10.667-10.667C336,4.776,331.224,0,325.333,0H186.667 C180.776,0,176,4.776,176,10.667c0,5.891,4.776,10.667,10.667,10.667H208V96h-64c-5.891,0-10.667,4.776-10.667,10.667 s4.776,10.667,10.667,10.667h32v231.029c0,25.109,12.683,48.939,33.952,63.755c9.036,6.275,19.263,10.632,30.048,12.8v76.416 c0,5.891,4.776,10.667,10.667,10.667s10.667-4.776,10.667-10.667v-74.88c7.896-0.536,15.676-2.196,23.104-4.928 C315.285,410.144,336,379.349,336,344.907V117.333h32c5.891,0,10.667-4.776,10.667-10.667S373.891,96,368,96z M229.333,21.333 h53.333V96h-53.333V21.333z M314.667,344.907c0,25.6-15.115,48.299-37.6,56.597c-18.308,6.973-38.883,4.411-54.923-6.837 c-15.541-10.88-24.811-28.171-24.811-46.304v-49.696H240c5.891,0,10.667-4.776,10.667-10.667s-4.776-10.667-10.667-10.667h-42.667 v-32H240c5.891,0,10.667-4.776,10.667-10.667S245.891,224,240,224h-42.667v-32H240c5.891,0,10.667-4.776,10.667-10.667 c0-5.891-4.776-10.667-10.667-10.667h-42.667v-53.333h117.333V344.907z"></path> </g> </g> </g></svg>