<svg id="visual" viewBox="0 0 900 600" width="900" height="600" xmlns="http://www.w3.org/2000/svg" xmlns:xlink="http://www.w3.org/1999/xlink" version="1.1"><g stroke-width="1" stroke-linejoin="bevel"><path d="M439 305L404 303L435 329.9Z" fill="#6c6c6c" stroke="#6c6c6c"></path><path d="M404 303L391 329.9L435 329.9Z" fill="#cbcbcb" stroke="#cbcbcb"></path><path d="M404 303L366 314L391 329.9Z" fill="#aaaaaa" stroke="#aaaaaa"></path><path d="M355 352.9L413 375.7L391 329.9Z" fill="#aaaaaa" stroke="#aaaaaa"></path><path d="M391 329.9L413 375.7L435 329.9Z" fill="#aaaaaa" stroke="#aaaaaa"></path><path d="M435 248.1L405 249.1L404 303Z" fill="#cbcbcb" stroke="#cbcbcb"></path><path d="M404 303L350 269.1L366 314Z" fill="#aaaaaa" stroke="#aaaaaa"></path><path d="M493 353.9L487 300L435 329.9Z" fill="#aaaaaa" stroke="#aaaaaa"></path><path d="M435 329.9L487 300L439 305Z" fill="#ffffff" stroke="#ffffff"></path><path d="M439 305L435 248.1L404 303Z" fill="#cbcbcb" stroke="#cbcbcb"></path><path d="M484 248.1L435 248.1L439 305Z" fill="#6c6c6c" stroke="#6c6c6c"></path><path d="M366 314L355 352.9L391 329.9Z" fill="#5d5d5d" stroke="#5d5d5d"></path><path d="M450 396.7L493 353.9L435 329.9Z" fill="#cbcbcb" stroke="#cbcbcb"></path><path d="M405 249.1L350 269.1L404 303Z" fill="#ededed" stroke="#ededed"></path><path d="M366 314L319 340.9L355 352.9Z" fill="#aaaaaa" stroke="#aaaaaa"></path><path d="M390 424.6L450 396.7L413 375.7Z" fill="#cbcbcb" stroke="#cbcbcb"></path><path d="M413 375.7L450 396.7L435 329.9Z" fill="#5d5d5d" stroke="#5d5d5d"></path><path d="M355 352.9L361 382.7L413 375.7Z" fill="#6c6c6c" stroke="#6c6c6c"></path><path d="M528 293L484 248.1L487 300Z" fill="#6c6c6c" stroke="#6c6c6c"></path><path d="M487 300L484 248.1L439 305Z" fill="#dcdcdc" stroke="#dcdcdc"></path><path d="M484 248.1L444 222.3L435 248.1Z" fill="#9a9a9a" stroke="#9a9a9a"></path><path d="M435 248.1L415 212.3L405 249.1Z" fill="#bababa" stroke="#bababa"></path><path d="M405 249.1L366 210.3L350 269.1Z" fill="#8a8a8a" stroke="#8a8a8a"></path><path d="M350 269.1L319 304L366 314Z" fill="#ededed" stroke="#ededed"></path><path d="M355 352.9L322 397.7L361 382.7Z" fill="#5d5d5d" stroke="#5d5d5d"></path><path d="M444 222.3L415 212.3L435 248.1Z" fill="#dcdcdc" stroke="#dcdcdc"></path><path d="M319 304L319 340.9L366 314Z" fill="#ffffff" stroke="#ffffff"></path><path d="M535 342.9L528 293L487 300Z" fill="#ededed" stroke="#ededed"></path><path d="M450 396.7L493 397.7L493 353.9Z" fill="#aaaaaa" stroke="#aaaaaa"></path><path d="M493 353.9L535 342.9L487 300Z" fill="#ededed" stroke="#ededed"></path><path d="M348 420.6L390 424.6L361 382.7Z" fill="#6c6c6c" stroke="#6c6c6c"></path><path d="M361 382.7L390 424.6L413 375.7Z" fill="#5d5d5d" stroke="#5d5d5d"></path><path d="M450 396.7L463 441.6L493 397.7Z" fill="#cbcbcb" stroke="#cbcbcb"></path><path d="M549 393.7L535 342.9L493 353.9Z" fill="#aaaaaa" stroke="#aaaaaa"></path><path d="M415 212.3L366 210.3L405 249.1Z" fill="#7b7b7b" stroke="#7b7b7b"></path><path d="M350 269.1L316 253.1L319 304Z" fill="#dcdcdc" stroke="#dcdcdc"></path><path d="M366 210.3L316 253.1L350 269.1Z" fill="#aaaaaa" stroke="#aaaaaa"></path><path d="M319 304L277 345.9L319 340.9Z" fill="#dcdcdc" stroke="#dcdcdc"></path><path d="M322 397.7L348 420.6L361 382.7Z" fill="#bababa" stroke="#bababa"></path><path d="M319 340.9L322 397.7L355 352.9Z" fill="#6c6c6c" stroke="#6c6c6c"></path><path d="M488 182.4L441 184.4L444 222.3Z" fill="#aaaaaa" stroke="#aaaaaa"></path><path d="M444 222.3L441 184.4L415 212.3Z" fill="#7b7b7b" stroke="#7b7b7b"></path><path d="M415 212.3L391 178.4L366 210.3Z" fill="#8a8a8a" stroke="#8a8a8a"></path><path d="M504 212.3L444 222.3L484 248.1Z" fill="#7b7b7b" stroke="#7b7b7b"></path><path d="M552 242.1L504 212.3L484 248.1Z" fill="#ffffff" stroke="#ffffff"></path><path d="M403 461.4L463 441.6L390 424.6Z" fill="#bababa" stroke="#bababa"></path><path d="M390 424.6L463 441.6L450 396.7Z" fill="#9a9a9a" stroke="#9a9a9a"></path><path d="M493 397.7L549 393.7L493 353.9Z" fill="#ffffff" stroke="#ffffff"></path><path d="M441 184.4L391 178.4L415 212.3Z" fill="#dcdcdc" stroke="#dcdcdc"></path><path d="M366 210.3L305 202.3L316 253.1Z" fill="#ededed" stroke="#ededed"></path><path d="M316 253.1L282 288L319 304Z" fill="#8a8a8a" stroke="#8a8a8a"></path><path d="M319 340.9L277 345.9L322 397.7Z" fill="#aaaaaa" stroke="#aaaaaa"></path><path d="M463 441.6L500 434.6L493 397.7Z" fill="#8a8a8a" stroke="#8a8a8a"></path><path d="M282 288L277 345.9L319 304Z" fill="#dcdcdc" stroke="#dcdcdc"></path><path d="M352 456.4L403 461.4L390 424.6Z" fill="#8a8a8a" stroke="#8a8a8a"></path><path d="M463 441.6L506 456.4L500 434.6Z" fill="#ededed" stroke="#ededed"></path><path d="M504 212.3L488 182.4L444 222.3Z" fill="#8a8a8a" stroke="#8a8a8a"></path><path d="M400 119.6L372 126.6L391 178.4Z" fill="#cbcbcb" stroke="#cbcbcb"></path><path d="M577 302L552 242.1L528 293Z" fill="#7b7b7b" stroke="#7b7b7b"></path><path d="M528 293L552 242.1L484 248.1Z" fill="#8a8a8a" stroke="#8a8a8a"></path><path d="M504 212.3L533 201.3L488 182.4Z" fill="#9a9a9a" stroke="#9a9a9a"></path><path d="M531 417.6L549 393.7L493 397.7Z" fill="#7b7b7b" stroke="#7b7b7b"></path><path d="M535 342.9L577 302L528 293Z" fill="#ededed" stroke="#ededed"></path><path d="M500 434.6L531 417.6L493 397.7Z" fill="#8a8a8a" stroke="#8a8a8a"></path><path d="M372 126.6L357 173.4L391 178.4Z" fill="#6c6c6c" stroke="#6c6c6c"></path><path d="M391 178.4L357 173.4L366 210.3Z" fill="#dcdcdc" stroke="#dcdcdc"></path><path d="M316 253.1L256 261.1L282 288Z" fill="#9a9a9a" stroke="#9a9a9a"></path><path d="M595 354.9L577 302L535 342.9Z" fill="#6c6c6c" stroke="#6c6c6c"></path><path d="M308 434.6L352 456.4L348 420.6Z" fill="#8a8a8a" stroke="#8a8a8a"></path><path d="M348 420.6L352 456.4L390 424.6Z" fill="#ededed" stroke="#ededed"></path><path d="M308 434.6L348 420.6L322 397.7Z" fill="#9a9a9a" stroke="#9a9a9a"></path><path d="M552 242.1L533 201.3L504 212.3Z" fill="#cbcbcb" stroke="#cbcbcb"></path><path d="M357 173.4L305 202.3L366 210.3Z" fill="#cbcbcb" stroke="#cbcbcb"></path><path d="M271 395.7L308 434.6L322 397.7Z" fill="#aaaaaa" stroke="#aaaaaa"></path><path d="M448 483.4L506 456.4L463 441.6Z" fill="#ffffff" stroke="#ffffff"></path><path d="M500 434.6L506 456.4L531 417.6Z" fill="#6c6c6c" stroke="#6c6c6c"></path><path d="M531 417.6L571 399.7L549 393.7Z" fill="#aaaaaa" stroke="#aaaaaa"></path><path d="M221 395.7L271 395.7L277 345.9Z" fill="#8a8a8a" stroke="#8a8a8a"></path><path d="M277 345.9L271 395.7L322 397.7Z" fill="#ededed" stroke="#ededed"></path><path d="M411 511.3L448 483.4L403 461.4Z" fill="#bababa" stroke="#bababa"></path><path d="M403 461.4L448 483.4L463 441.6Z" fill="#6c6c6c" stroke="#6c6c6c"></path><path d="M596 438.6L571 399.7L531 417.6Z" fill="#cbcbcb" stroke="#cbcbcb"></path><path d="M549 393.7L595 354.9L535 342.9Z" fill="#bababa" stroke="#bababa"></path><path d="M577 302L578 242.1L552 242.1Z" fill="#6c6c6c" stroke="#6c6c6c"></path><path d="M552 242.1L596 216.3L533 201.3Z" fill="#6c6c6c" stroke="#6c6c6c"></path><path d="M274 214.3L256 261.1L316 253.1Z" fill="#5d5d5d" stroke="#5d5d5d"></path><path d="M282 288L216 314L277 345.9Z" fill="#7b7b7b" stroke="#7b7b7b"></path><path d="M305 202.3L274 214.3L316 253.1Z" fill="#5d5d5d" stroke="#5d5d5d"></path><path d="M261 162.4L274 214.3L305 202.3Z" fill="#bababa" stroke="#bababa"></path><path d="M571 399.7L595 354.9L549 393.7Z" fill="#cbcbcb" stroke="#cbcbcb"></path><path d="M637 259.1L596 216.3L578 242.1Z" fill="#6c6c6c" stroke="#6c6c6c"></path><path d="M596 216.3L542 176.4L533 201.3Z" fill="#aaaaaa" stroke="#aaaaaa"></path><path d="M533 201.3L542 176.4L488 182.4Z" fill="#ededed" stroke="#ededed"></path><path d="M488 182.4L497 138.6L441 184.4Z" fill="#5d5d5d" stroke="#5d5d5d"></path><path d="M270 426.6L307 460.4L308 434.6Z" fill="#ededed" stroke="#ededed"></path><path d="M308 434.6L307 460.4L352 456.4Z" fill="#9a9a9a" stroke="#9a9a9a"></path><path d="M352 456.4L411 511.3L403 461.4Z" fill="#9a9a9a" stroke="#9a9a9a"></path><path d="M221 395.7L270 426.6L271 395.7Z" fill="#6c6c6c" stroke="#6c6c6c"></path><path d="M271 395.7L270 426.6L308 434.6Z" fill="#7b7b7b" stroke="#7b7b7b"></path><path d="M542 176.4L497 138.6L488 182.4Z" fill="#7b7b7b" stroke="#7b7b7b"></path><path d="M485 514.3L536 469.4L506 456.4Z" fill="#9a9a9a" stroke="#9a9a9a"></path><path d="M506 456.4L536 469.4L531 417.6Z" fill="#dcdcdc" stroke="#dcdcdc"></path><path d="M571 399.7L623 371.7L595 354.9Z" fill="#9a9a9a" stroke="#9a9a9a"></path><path d="M315 125.6L308 157.4L357 173.4Z" fill="#7b7b7b" stroke="#7b7b7b"></path><path d="M357 173.4L308 157.4L305 202.3Z" fill="#aaaaaa" stroke="#aaaaaa"></path><path d="M400 119.6L391 178.4L441 184.4Z" fill="#aaaaaa" stroke="#aaaaaa"></path><path d="M440 118.6L400 119.6L441 184.4Z" fill="#ffffff" stroke="#ffffff"></path><path d="M347 528.3L411 511.3L352 456.4Z" fill="#6c6c6c" stroke="#6c6c6c"></path><path d="M448 483.4L485 514.3L506 456.4Z" fill="#9a9a9a" stroke="#9a9a9a"></path><path d="M497 138.6L440 118.6L441 184.4Z" fill="#8a8a8a" stroke="#8a8a8a"></path><path d="M232 225.3L233 249.1L256 261.1Z" fill="#dcdcdc" stroke="#dcdcdc"></path><path d="M256 261.1L216 314L282 288Z" fill="#8a8a8a" stroke="#8a8a8a"></path><path d="M232 225.3L256 261.1L274 214.3Z" fill="#ffffff" stroke="#ffffff"></path><path d="M637 259.1L578 242.1L577 302Z" fill="#6c6c6c" stroke="#6c6c6c"></path><path d="M578 242.1L596 216.3L552 242.1Z" fill="#ededed" stroke="#ededed"></path><path d="M542 176.4L540 139.6L497 138.6Z" fill="#9a9a9a" stroke="#9a9a9a"></path><path d="M411 511.3L451 516.3L448 483.4Z" fill="#7b7b7b" stroke="#7b7b7b"></path><path d="M233 249.1L216 314L256 261.1Z" fill="#9a9a9a" stroke="#9a9a9a"></path><path d="M216 314L215 333.9L277 345.9Z" fill="#dcdcdc" stroke="#dcdcdc"></path><path d="M236 179.4L232 225.3L274 214.3Z" fill="#7b7b7b" stroke="#7b7b7b"></path><path d="M167 252.1L166 306L216 314Z" fill="#dcdcdc" stroke="#dcdcdc"></path><path d="M451 516.3L485 514.3L448 483.4Z" fill="#9a9a9a" stroke="#9a9a9a"></path><path d="M631 420.6L623 371.7L571 399.7Z" fill="#7b7b7b" stroke="#7b7b7b"></path><path d="M595 354.9L633 308L577 302Z" fill="#5d5d5d" stroke="#5d5d5d"></path><path d="M597 133.6L540 139.6L542 176.4Z" fill="#aaaaaa" stroke="#aaaaaa"></path><path d="M463 74.7L407 85.7L440 118.6Z" fill="#dcdcdc" stroke="#dcdcdc"></path><path d="M642 333.9L633 308L595 354.9Z" fill="#aaaaaa" stroke="#aaaaaa"></path><path d="M588 473.4L596 438.6L536 469.4Z" fill="#cbcbcb" stroke="#cbcbcb"></path><path d="M536 469.4L596 438.6L531 417.6Z" fill="#aaaaaa" stroke="#aaaaaa"></path><path d="M215 333.9L221 395.7L277 345.9Z" fill="#ffffff" stroke="#ffffff"></path><path d="M265 471.4L329 513.3L307 460.4Z" fill="#cbcbcb" stroke="#cbcbcb"></path><path d="M372 126.6L315 125.6L357 173.4Z" fill="#8a8a8a" stroke="#8a8a8a"></path><path d="M308 157.4L261 162.4L305 202.3Z" fill="#dcdcdc" stroke="#dcdcdc"></path><path d="M365 94.7L315 125.6L372 126.6Z" fill="#9a9a9a" stroke="#9a9a9a"></path><path d="M265 471.4L307 460.4L270 426.6Z" fill="#7b7b7b" stroke="#7b7b7b"></path><path d="M307 460.4L329 513.3L352 456.4Z" fill="#5d5d5d" stroke="#5d5d5d"></path><path d="M411 511.3L444 554.1L451 516.3Z" fill="#dcdcdc" stroke="#dcdcdc"></path><path d="M633 210.3L599 184.4L596 216.3Z" fill="#cbcbcb" stroke="#cbcbcb"></path><path d="M596 216.3L599 184.4L542 176.4Z" fill="#9a9a9a" stroke="#9a9a9a"></path><path d="M262 122.6L261 162.4L308 157.4Z" fill="#9a9a9a" stroke="#9a9a9a"></path><path d="M216 433.6L265 471.4L270 426.6Z" fill="#6c6c6c" stroke="#6c6c6c"></path><path d="M660 339.9L642 333.9L623 371.7Z" fill="#dcdcdc" stroke="#dcdcdc"></path><path d="M623 371.7L642 333.9L595 354.9Z" fill="#cbcbcb" stroke="#cbcbcb"></path><path d="M633 308L637 259.1L577 302Z" fill="#ededed" stroke="#ededed"></path><path d="M670 304L637 259.1L633 308Z" fill="#cbcbcb" stroke="#cbcbcb"></path><path d="M313 569.1L347 528.3L329 513.3Z" fill="#cbcbcb" stroke="#cbcbcb"></path><path d="M329 513.3L347 528.3L352 456.4Z" fill="#9a9a9a" stroke="#9a9a9a"></path><path d="M505 558.1L541 514.3L485 514.3Z" fill="#dcdcdc" stroke="#dcdcdc"></path><path d="M407 85.7L365 94.7L400 119.6Z" fill="#aaaaaa" stroke="#aaaaaa"></path><path d="M400 119.6L365 94.7L372 126.6Z" fill="#ededed" stroke="#ededed"></path><path d="M407 85.7L400 119.6L440 118.6Z" fill="#7b7b7b" stroke="#7b7b7b"></path><path d="M261 162.4L236 179.4L274 214.3Z" fill="#cbcbcb" stroke="#cbcbcb"></path><path d="M167 252.1L216 314L233 249.1Z" fill="#aaaaaa" stroke="#aaaaaa"></path><path d="M237 139.6L236 179.4L261 162.4Z" fill="#ededed" stroke="#ededed"></path><path d="M506 98.7L440 118.6L497 138.6Z" fill="#8a8a8a" stroke="#8a8a8a"></path><path d="M582 499.3L588 473.4L536 469.4Z" fill="#ededed" stroke="#ededed"></path><path d="M596 438.6L631 420.6L571 399.7Z" fill="#ededed" stroke="#ededed"></path><path d="M525 86.7L506 98.7L540 139.6Z" fill="#9a9a9a" stroke="#9a9a9a"></path><path d="M540 139.6L506 98.7L497 138.6Z" fill="#ededed" stroke="#ededed"></path><path d="M485 514.3L541 514.3L536 469.4Z" fill="#9a9a9a" stroke="#9a9a9a"></path><path d="M444 554.1L485 514.3L451 516.3Z" fill="#9a9a9a" stroke="#9a9a9a"></path><path d="M620 476.4L631 420.6L596 438.6Z" fill="#dcdcdc" stroke="#dcdcdc"></path><path d="M313 569.1L369 545.1L347 528.3Z" fill="#dcdcdc" stroke="#dcdcdc"></path><path d="M347 528.3L369 545.1L411 511.3Z" fill="#ededed" stroke="#ededed"></path><path d="M637 259.1L633 210.3L596 216.3Z" fill="#7b7b7b" stroke="#7b7b7b"></path><path d="M599 184.4L597 133.6L542 176.4Z" fill="#bababa" stroke="#bababa"></path><path d="M186 424.6L216 433.6L221 395.7Z" fill="#ededed" stroke="#ededed"></path><path d="M221 395.7L216 433.6L270 426.6Z" fill="#8a8a8a" stroke="#8a8a8a"></path><path d="M369 545.1L395 551.1L411 511.3Z" fill="#aaaaaa" stroke="#aaaaaa"></path><path d="M395 551.1L444 554.1L411 511.3Z" fill="#7b7b7b" stroke="#7b7b7b"></path><path d="M661 395.7L660 339.9L623 371.7Z" fill="#6c6c6c" stroke="#6c6c6c"></path><path d="M642 333.9L670 304L633 308Z" fill="#dcdcdc" stroke="#dcdcdc"></path><path d="M637 259.1L661 246.1L633 210.3Z" fill="#9a9a9a" stroke="#9a9a9a"></path><path d="M506 98.7L463 74.7L440 118.6Z" fill="#ffffff" stroke="#ffffff"></path><path d="M541 514.3L582 499.3L536 469.4Z" fill="#9a9a9a" stroke="#9a9a9a"></path><path d="M588 473.4L620 476.4L596 438.6Z" fill="#9a9a9a" stroke="#9a9a9a"></path><path d="M552 546.1L582 499.3L541 514.3Z" fill="#bababa" stroke="#bababa"></path><path d="M660 339.9L670 304L642 333.9Z" fill="#dcdcdc" stroke="#dcdcdc"></path><path d="M267 83.7L262 122.6L315 125.6Z" fill="#cbcbcb" stroke="#cbcbcb"></path><path d="M315 125.6L262 122.6L308 157.4Z" fill="#bababa" stroke="#bababa"></path><path d="M670 304L661 246.1L637 259.1Z" fill="#5d5d5d" stroke="#5d5d5d"></path><path d="M663 175.4L619 162.4L633 210.3Z" fill="#ffffff" stroke="#ffffff"></path><path d="M633 210.3L619 162.4L599 184.4Z" fill="#6c6c6c" stroke="#6c6c6c"></path><path d="M572 79.7L525 86.7L540 139.6Z" fill="#aaaaaa" stroke="#aaaaaa"></path><path d="M506 98.7L504 42.9L463 74.7Z" fill="#aaaaaa" stroke="#aaaaaa"></path><path d="M619 162.4L597 133.6L599 184.4Z" fill="#8a8a8a" stroke="#8a8a8a"></path><path d="M687 420.6L661 395.7L631 420.6Z" fill="#5d5d5d" stroke="#5d5d5d"></path><path d="M631 420.6L661 395.7L623 371.7Z" fill="#ffffff" stroke="#ffffff"></path><path d="M728 303L713 259.1L670 304Z" fill="#dcdcdc" stroke="#dcdcdc"></path><path d="M262 122.6L237 139.6L261 162.4Z" fill="#bababa" stroke="#bababa"></path><path d="M167 252.1L233 249.1L174 226.3Z" fill="#7b7b7b" stroke="#7b7b7b"></path><path d="M233 249.1L232 225.3L174 226.3Z" fill="#6c6c6c" stroke="#6c6c6c"></path><path d="M216 314L166 306L215 333.9Z" fill="#bababa" stroke="#bababa"></path><path d="M215 333.9L173 393.7L221 395.7Z" fill="#aaaaaa" stroke="#aaaaaa"></path><path d="M166 306L167 345.9L215 333.9Z" fill="#5d5d5d" stroke="#5d5d5d"></path><path d="M582 499.3L620 476.4L588 473.4Z" fill="#5d5d5d" stroke="#5d5d5d"></path><path d="M440 600L505 558.1L444 554.1Z" fill="#dcdcdc" stroke="#dcdcdc"></path><path d="M444 554.1L505 558.1L485 514.3Z" fill="#5d5d5d" stroke="#5d5d5d"></path><path d="M582 499.3L632 521.3L620 476.4Z" fill="#5d5d5d" stroke="#5d5d5d"></path><path d="M173 393.7L186 424.6L221 395.7Z" fill="#ffffff" stroke="#ffffff"></path><path d="M231 518.3L265 525.3L265 471.4Z" fill="#aaaaaa" stroke="#aaaaaa"></path><path d="M265 471.4L265 525.3L329 513.3Z" fill="#bababa" stroke="#bababa"></path><path d="M365 41.9L324 73.7L365 94.7Z" fill="#bababa" stroke="#bababa"></path><path d="M365 94.7L324 73.7L315 125.6Z" fill="#5d5d5d" stroke="#5d5d5d"></path><path d="M262 122.6L237 79.7L237 139.6Z" fill="#bababa" stroke="#bababa"></path><path d="M365 41.9L365 94.7L407 85.7Z" fill="#bababa" stroke="#bababa"></path><path d="M167 345.9L173 393.7L215 333.9Z" fill="#bababa" stroke="#bababa"></path><path d="M174 226.3L232 225.3L174 175.4Z" fill="#5d5d5d" stroke="#5d5d5d"></path><path d="M210 483.4L265 471.4L216 433.6Z" fill="#6c6c6c" stroke="#6c6c6c"></path><path d="M363 600L409 600L395 551.1Z" fill="#bababa" stroke="#bababa"></path><path d="M174 175.4L232 225.3L236 179.4Z" fill="#6c6c6c" stroke="#6c6c6c"></path><path d="M505 558.1L552 546.1L541 514.3Z" fill="#ededed" stroke="#ededed"></path><path d="M504 42.9L445 47.9L463 74.7Z" fill="#7b7b7b" stroke="#7b7b7b"></path><path d="M463 74.7L445 47.9L407 85.7Z" fill="#8a8a8a" stroke="#8a8a8a"></path><path d="M166 462.4L216 433.6L186 424.6Z" fill="#9a9a9a" stroke="#9a9a9a"></path><path d="M166 462.4L210 483.4L216 433.6Z" fill="#8a8a8a" stroke="#8a8a8a"></path><path d="M264 561.1L313 569.1L265 525.3Z" fill="#dcdcdc" stroke="#dcdcdc"></path><path d="M265 525.3L313 569.1L329 513.3Z" fill="#cbcbcb" stroke="#cbcbcb"></path><path d="M395 551.1L409 600L444 554.1Z" fill="#bababa" stroke="#bababa"></path><path d="M324 73.7L267 83.7L315 125.6Z" fill="#7b7b7b" stroke="#7b7b7b"></path><path d="M237 139.6L174 175.4L236 179.4Z" fill="#cbcbcb" stroke="#cbcbcb"></path><path d="M264 32.9L267 83.7L324 73.7Z" fill="#5d5d5d" stroke="#5d5d5d"></path><path d="M210 483.4L231 518.3L265 471.4Z" fill="#dcdcdc" stroke="#dcdcdc"></path><path d="M413 34.9L365 41.9L407 85.7Z" fill="#ededed" stroke="#ededed"></path><path d="M166 306L143 336.9L167 345.9Z" fill="#cbcbcb" stroke="#cbcbcb"></path><path d="M167 345.9L127 399.7L173 393.7Z" fill="#7b7b7b" stroke="#7b7b7b"></path><path d="M121 436.6L166 462.4L186 424.6Z" fill="#cbcbcb" stroke="#cbcbcb"></path><path d="M124 297L143 336.9L166 306Z" fill="#cbcbcb" stroke="#cbcbcb"></path><path d="M124 297L166 306L167 252.1Z" fill="#dcdcdc" stroke="#dcdcdc"></path><path d="M687 222.3L663 175.4L633 210.3Z" fill="#7b7b7b" stroke="#7b7b7b"></path><path d="M619 162.4L643 137.6L597 133.6Z" fill="#aaaaaa" stroke="#aaaaaa"></path><path d="M597 133.6L572 79.7L540 139.6Z" fill="#bababa" stroke="#bababa"></path><path d="M687 222.3L633 210.3L661 246.1Z" fill="#8a8a8a" stroke="#8a8a8a"></path><path d="M634 76.7L572 79.7L597 133.6Z" fill="#ffffff" stroke="#ffffff"></path><path d="M525 86.7L504 42.9L506 98.7Z" fill="#dcdcdc" stroke="#dcdcdc"></path><path d="M418 0L413 34.9L447 0Z" fill="#ffffff" stroke="#ffffff"></path><path d="M445 47.9L413 34.9L407 85.7Z" fill="#dcdcdc" stroke="#dcdcdc"></path><path d="M713 259.1L687 222.3L661 246.1Z" fill="#7b7b7b" stroke="#7b7b7b"></path><path d="M713 259.1L661 246.1L670 304Z" fill="#6c6c6c" stroke="#6c6c6c"></path><path d="M170 130.6L174 175.4L237 139.6Z" fill="#8a8a8a" stroke="#8a8a8a"></path><path d="M121 248.1L124 297L167 252.1Z" fill="#dcdcdc" stroke="#dcdcdc"></path><path d="M663 175.4L643 137.6L619 162.4Z" fill="#dcdcdc" stroke="#dcdcdc"></path><path d="M533 29.9L504 42.9L525 86.7Z" fill="#aaaaaa" stroke="#aaaaaa"></path><path d="M363 600L395 551.1L369 545.1Z" fill="#5d5d5d" stroke="#5d5d5d"></path><path d="M505 558.1L544 600L552 546.1Z" fill="#5d5d5d" stroke="#5d5d5d"></path><path d="M409 600L440 600L444 554.1Z" fill="#bababa" stroke="#bababa"></path><path d="M686 459.4L687 420.6L631 420.6Z" fill="#bababa" stroke="#bababa"></path><path d="M661 395.7L726 399.7L660 339.9Z" fill="#bababa" stroke="#bababa"></path><path d="M686 459.4L631 420.6L620 476.4Z" fill="#5d5d5d" stroke="#5d5d5d"></path><path d="M313 569.1L363 600L369 545.1Z" fill="#5d5d5d" stroke="#5d5d5d"></path><path d="M231 553.1L264 561.1L265 525.3Z" fill="#aaaaaa" stroke="#aaaaaa"></path><path d="M313 569.1L316 600L363 600Z" fill="#dcdcdc" stroke="#dcdcdc"></path><path d="M127 399.7L186 424.6L173 393.7Z" fill="#9a9a9a" stroke="#9a9a9a"></path><path d="M186 552.1L231 553.1L231 518.3Z" fill="#ededed" stroke="#ededed"></path><path d="M231 518.3L231 553.1L265 525.3Z" fill="#cbcbcb" stroke="#cbcbcb"></path><path d="M348 0L328 34.9L365 41.9Z" fill="#dcdcdc" stroke="#dcdcdc"></path><path d="M365 41.9L328 34.9L324 73.7Z" fill="#6c6c6c" stroke="#6c6c6c"></path><path d="M593 564.1L582 499.3L552 546.1Z" fill="#ffffff" stroke="#ffffff"></path><path d="M593 564.1L632 521.3L582 499.3Z" fill="#8a8a8a" stroke="#8a8a8a"></path><path d="M728 303L670 304L733 331.9Z" fill="#aaaaaa" stroke="#aaaaaa"></path><path d="M724 163.4L681 130.6L663 175.4Z" fill="#aaaaaa" stroke="#aaaaaa"></path><path d="M663 175.4L681 130.6L643 137.6Z" fill="#dcdcdc" stroke="#dcdcdc"></path><path d="M121 248.1L167 252.1L174 226.3Z" fill="#8a8a8a" stroke="#8a8a8a"></path><path d="M143 336.9L127 399.7L167 345.9Z" fill="#cbcbcb" stroke="#cbcbcb"></path><path d="M440 600L508 600L505 558.1Z" fill="#aaaaaa" stroke="#aaaaaa"></path><path d="M264 32.9L237 79.7L267 83.7Z" fill="#aaaaaa" stroke="#aaaaaa"></path><path d="M267 83.7L237 79.7L262 122.6Z" fill="#8a8a8a" stroke="#8a8a8a"></path><path d="M686 459.4L705 414.6L687 420.6Z" fill="#dcdcdc" stroke="#dcdcdc"></path><path d="M687 420.6L705 414.6L661 395.7Z" fill="#ffffff" stroke="#ffffff"></path><path d="M685 519.3L686 459.4L620 476.4Z" fill="#dcdcdc" stroke="#dcdcdc"></path><path d="M544 600L593 564.1L552 546.1Z" fill="#bababa" stroke="#bababa"></path><path d="M264 600L316 600L313 569.1Z" fill="#9a9a9a" stroke="#9a9a9a"></path><path d="M143 184.4L139 200.3L174 175.4Z" fill="#9a9a9a" stroke="#9a9a9a"></path><path d="M174 175.4L139 200.3L174 226.3Z" fill="#aaaaaa" stroke="#aaaaaa"></path><path d="M181 522.3L231 518.3L210 483.4Z" fill="#6c6c6c" stroke="#6c6c6c"></path><path d="M264 561.1L264 600L313 569.1Z" fill="#9a9a9a" stroke="#9a9a9a"></path><path d="M87 351.9L127 399.7L143 336.9Z" fill="#ededed" stroke="#ededed"></path><path d="M572 79.7L533 29.9L525 86.7Z" fill="#cbcbcb" stroke="#cbcbcb"></path><path d="M447 0L413 34.9L445 47.9Z" fill="#7b7b7b" stroke="#7b7b7b"></path><path d="M413 34.9L418 0L365 41.9Z" fill="#7b7b7b" stroke="#7b7b7b"></path><path d="M580 31.9L533 29.9L572 79.7Z" fill="#bababa" stroke="#bababa"></path><path d="M170 130.6L143 184.4L174 175.4Z" fill="#ffffff" stroke="#ffffff"></path><path d="M139 200.3L121 248.1L174 226.3Z" fill="#cbcbcb" stroke="#cbcbcb"></path><path d="M95 426.6L121 436.6L127 399.7Z" fill="#ffffff" stroke="#ffffff"></path><path d="M91 288L121 248.1L92 254.1Z" fill="#8a8a8a" stroke="#8a8a8a"></path><path d="M733 331.9L670 304L660 339.9Z" fill="#ededed" stroke="#ededed"></path><path d="M508 600L544 600L505 558.1Z" fill="#6c6c6c" stroke="#6c6c6c"></path><path d="M189 79.7L170 130.6L237 139.6Z" fill="#cbcbcb" stroke="#cbcbcb"></path><path d="M726 399.7L733 331.9L660 339.9Z" fill="#ededed" stroke="#ededed"></path><path d="M121 436.6L149 471.4L166 462.4Z" fill="#9a9a9a" stroke="#9a9a9a"></path><path d="M166 462.4L181 522.3L210 483.4Z" fill="#cbcbcb" stroke="#cbcbcb"></path><path d="M447 0L445 47.9L494 0Z" fill="#aaaaaa" stroke="#aaaaaa"></path><path d="M494 0L445 47.9L504 42.9Z" fill="#ffffff" stroke="#ffffff"></path><path d="M705 414.6L726 399.7L661 395.7Z" fill="#dcdcdc" stroke="#dcdcdc"></path><path d="M727 467.4L726 399.7L705 414.6Z" fill="#5d5d5d" stroke="#5d5d5d"></path><path d="M149 471.4L181 522.3L166 462.4Z" fill="#dcdcdc" stroke="#dcdcdc"></path><path d="M724 163.4L663 175.4L687 222.3Z" fill="#ffffff" stroke="#ffffff"></path><path d="M643 137.6L634 76.7L597 133.6Z" fill="#7b7b7b" stroke="#7b7b7b"></path><path d="M729 227.3L687 222.3L713 259.1Z" fill="#7b7b7b" stroke="#7b7b7b"></path><path d="M669 87.7L634 76.7L643 137.6Z" fill="#bababa" stroke="#bababa"></path><path d="M597 600L628 559.1L593 564.1Z" fill="#dcdcdc" stroke="#dcdcdc"></path><path d="M593 564.1L628 559.1L632 521.3Z" fill="#bababa" stroke="#bababa"></path><path d="M632 521.3L685 519.3L620 476.4Z" fill="#cbcbcb" stroke="#cbcbcb"></path><path d="M686 459.4L727 467.4L705 414.6Z" fill="#ffffff" stroke="#ffffff"></path><path d="M754 269.1L713 259.1L728 303Z" fill="#5d5d5d" stroke="#5d5d5d"></path><path d="M754 269.1L729 227.3L713 259.1Z" fill="#8a8a8a" stroke="#8a8a8a"></path><path d="M328 34.9L264 32.9L324 73.7Z" fill="#ffffff" stroke="#ffffff"></path><path d="M237 79.7L189 79.7L237 139.6Z" fill="#dcdcdc" stroke="#dcdcdc"></path><path d="M310 0L264 32.9L328 34.9Z" fill="#5d5d5d" stroke="#5d5d5d"></path><path d="M418 0L348 0L365 41.9Z" fill="#ededed" stroke="#ededed"></path><path d="M543 0L494 0L533 29.9Z" fill="#5d5d5d" stroke="#5d5d5d"></path><path d="M533 29.9L494 0L504 42.9Z" fill="#6c6c6c" stroke="#6c6c6c"></path><path d="M127 399.7L121 436.6L186 424.6Z" fill="#dcdcdc" stroke="#dcdcdc"></path><path d="M134 550.1L186 552.1L181 522.3Z" fill="#ededed" stroke="#ededed"></path><path d="M87 351.9L143 336.9L124 297Z" fill="#bababa" stroke="#bababa"></path><path d="M616 49.9L580 31.9L572 79.7Z" fill="#ffffff" stroke="#ffffff"></path><path d="M238 600L264 561.1L231 553.1Z" fill="#7b7b7b" stroke="#7b7b7b"></path><path d="M238 600L264 600L264 561.1Z" fill="#aaaaaa" stroke="#aaaaaa"></path><path d="M661 48.9L616 49.9L634 76.7Z" fill="#5d5d5d" stroke="#5d5d5d"></path><path d="M634 76.7L616 49.9L572 79.7Z" fill="#7b7b7b" stroke="#7b7b7b"></path><path d="M213 50.9L189 79.7L237 79.7Z" fill="#cbcbcb" stroke="#cbcbcb"></path><path d="M92 219.3L139 200.3L98 158.4Z" fill="#bababa" stroke="#bababa"></path><path d="M92 254.1L121 248.1L92 219.3Z" fill="#5d5d5d" stroke="#5d5d5d"></path><path d="M121 248.1L91 288L124 297Z" fill="#bababa" stroke="#bababa"></path><path d="M121 248.1L139 200.3L92 219.3Z" fill="#dcdcdc" stroke="#dcdcdc"></path><path d="M348 0L310 0L328 34.9Z" fill="#dcdcdc" stroke="#dcdcdc"></path><path d="M264 32.9L213 50.9L237 79.7Z" fill="#6c6c6c" stroke="#6c6c6c"></path><path d="M138 524.3L181 522.3L149 471.4Z" fill="#ededed" stroke="#ededed"></path><path d="M181 522.3L186 552.1L231 518.3Z" fill="#6c6c6c" stroke="#6c6c6c"></path><path d="M677 548.1L685 519.3L632 521.3Z" fill="#bababa" stroke="#bababa"></path><path d="M139 200.3L143 184.4L98 158.4Z" fill="#9a9a9a" stroke="#9a9a9a"></path><path d="M544 600L597 600L593 564.1Z" fill="#ededed" stroke="#ededed"></path><path d="M628 559.1L677 548.1L632 521.3Z" fill="#aaaaaa" stroke="#aaaaaa"></path><path d="M83 379.7L35 334.9L47 394.7Z" fill="#ededed" stroke="#ededed"></path><path d="M91 288L87 351.9L124 297Z" fill="#dcdcdc" stroke="#dcdcdc"></path><path d="M210 0L213 50.9L264 32.9Z" fill="#8a8a8a" stroke="#8a8a8a"></path><path d="M776 302L754 269.1L728 303Z" fill="#aaaaaa" stroke="#aaaaaa"></path><path d="M715 86.7L669 87.7L681 130.6Z" fill="#7b7b7b" stroke="#7b7b7b"></path><path d="M776 302L728 303L733 331.9Z" fill="#8a8a8a" stroke="#8a8a8a"></path><path d="M681 130.6L669 87.7L643 137.6Z" fill="#ffffff" stroke="#ffffff"></path><path d="M724 163.4L687 222.3L729 227.3Z" fill="#7b7b7b" stroke="#7b7b7b"></path><path d="M580 31.9L543 0L533 29.9Z" fill="#6c6c6c" stroke="#6c6c6c"></path><path d="M599 0L543 0L580 31.9Z" fill="#bababa" stroke="#bababa"></path><path d="M185 600L238 600L231 553.1Z" fill="#dcdcdc" stroke="#dcdcdc"></path><path d="M751 162.4L724 163.4L729 227.3Z" fill="#5d5d5d" stroke="#5d5d5d"></path><path d="M705 513.3L727 467.4L686 459.4Z" fill="#cbcbcb" stroke="#cbcbcb"></path><path d="M776 370.7L772 337.9L733 331.9Z" fill="#6c6c6c" stroke="#6c6c6c"></path><path d="M129 125.6L143 184.4L170 130.6Z" fill="#7b7b7b" stroke="#7b7b7b"></path><path d="M83 379.7L87 351.9L35 334.9Z" fill="#aaaaaa" stroke="#aaaaaa"></path><path d="M87 351.9L91 288L37 303Z" fill="#ededed" stroke="#ededed"></path><path d="M87 351.9L83 379.7L127 399.7Z" fill="#cbcbcb" stroke="#cbcbcb"></path><path d="M84 485.4L138 524.3L149 471.4Z" fill="#aaaaaa" stroke="#aaaaaa"></path><path d="M724 163.4L710 127.6L681 130.6Z" fill="#bababa" stroke="#bababa"></path><path d="M83 379.7L95 426.6L127 399.7Z" fill="#cbcbcb" stroke="#cbcbcb"></path><path d="M668 600L677 548.1L628 559.1Z" fill="#ededed" stroke="#ededed"></path><path d="M685 519.3L705 513.3L686 459.4Z" fill="#9a9a9a" stroke="#9a9a9a"></path><path d="M724 550.1L705 513.3L685 519.3Z" fill="#bababa" stroke="#bababa"></path><path d="M147 80.7L129 125.6L170 130.6Z" fill="#7b7b7b" stroke="#7b7b7b"></path><path d="M147 80.7L170 130.6L189 79.7Z" fill="#7b7b7b" stroke="#7b7b7b"></path><path d="M310 0L265 0L264 32.9Z" fill="#ededed" stroke="#ededed"></path><path d="M147 41.9L147 80.7L189 79.7Z" fill="#5d5d5d" stroke="#5d5d5d"></path><path d="M776 370.7L733 331.9L726 399.7Z" fill="#ffffff" stroke="#ffffff"></path><path d="M84 485.4L149 471.4L121 436.6Z" fill="#ededed" stroke="#ededed"></path><path d="M186 552.1L185 600L231 553.1Z" fill="#dcdcdc" stroke="#dcdcdc"></path><path d="M597 600L631 600L628 559.1Z" fill="#8a8a8a" stroke="#8a8a8a"></path><path d="M772 337.9L776 302L733 331.9Z" fill="#ededed" stroke="#ededed"></path><path d="M754 269.1L767 216.3L729 227.3Z" fill="#7b7b7b" stroke="#7b7b7b"></path><path d="M669 87.7L661 48.9L634 76.7Z" fill="#8a8a8a" stroke="#8a8a8a"></path><path d="M616 49.9L599 0L580 31.9Z" fill="#aaaaaa" stroke="#aaaaaa"></path><path d="M715 86.7L661 48.9L669 87.7Z" fill="#aaaaaa" stroke="#aaaaaa"></path><path d="M129 125.6L98 158.4L143 184.4Z" fill="#dcdcdc" stroke="#dcdcdc"></path><path d="M778 430.6L776 370.7L726 399.7Z" fill="#bababa" stroke="#bababa"></path><path d="M772 337.9L802 300L776 302Z" fill="#6c6c6c" stroke="#6c6c6c"></path><path d="M761 463.4L726 399.7L727 467.4Z" fill="#8a8a8a" stroke="#8a8a8a"></path><path d="M797 205.3L767 216.3L818 255.1Z" fill="#9a9a9a" stroke="#9a9a9a"></path><path d="M724 163.4L751 162.4L710 127.6Z" fill="#ededed" stroke="#ededed"></path><path d="M710 127.6L715 86.7L681 130.6Z" fill="#7b7b7b" stroke="#7b7b7b"></path><path d="M168 29.9L189 79.7L213 50.9Z" fill="#5d5d5d" stroke="#5d5d5d"></path><path d="M129 125.6L92 118.6L98 158.4Z" fill="#cbcbcb" stroke="#cbcbcb"></path><path d="M618 0L599 0L616 49.9Z" fill="#ffffff" stroke="#ffffff"></path><path d="M767 216.3L751 162.4L729 227.3Z" fill="#dcdcdc" stroke="#dcdcdc"></path><path d="M134 550.1L185 600L186 552.1Z" fill="#9a9a9a" stroke="#9a9a9a"></path><path d="M138 524.3L134 550.1L181 522.3Z" fill="#dcdcdc" stroke="#dcdcdc"></path><path d="M100 528.3L134 550.1L138 524.3Z" fill="#ffffff" stroke="#ffffff"></path><path d="M767 523.3L727 467.4L705 513.3Z" fill="#bababa" stroke="#bababa"></path><path d="M767 523.3L761 463.4L727 467.4Z" fill="#6c6c6c" stroke="#6c6c6c"></path><path d="M724 550.1L685 519.3L677 548.1Z" fill="#9a9a9a" stroke="#9a9a9a"></path><path d="M661 48.9L618 0L616 49.9Z" fill="#6c6c6c" stroke="#6c6c6c"></path><path d="M761 118.6L715 86.7L710 127.6Z" fill="#dcdcdc" stroke="#dcdcdc"></path><path d="M661 48.9L682 0L618 0Z" fill="#6c6c6c" stroke="#6c6c6c"></path><path d="M761 463.4L778 430.6L726 399.7Z" fill="#aaaaaa" stroke="#aaaaaa"></path><path d="M776 370.7L797 347.9L772 337.9Z" fill="#cbcbcb" stroke="#cbcbcb"></path><path d="M631 600L668 600L628 559.1Z" fill="#6c6c6c" stroke="#6c6c6c"></path><path d="M824 379.7L797 347.9L776 370.7Z" fill="#bababa" stroke="#bababa"></path><path d="M776 302L802 300L754 269.1Z" fill="#dcdcdc" stroke="#dcdcdc"></path><path d="M54 460.4L84 485.4L95 426.6Z" fill="#dcdcdc" stroke="#dcdcdc"></path><path d="M95 426.6L84 485.4L121 436.6Z" fill="#6c6c6c" stroke="#6c6c6c"></path><path d="M265 0L210 0L264 32.9Z" fill="#9a9a9a" stroke="#9a9a9a"></path><path d="M210 0L168 29.9L213 50.9Z" fill="#8a8a8a" stroke="#8a8a8a"></path><path d="M86 79.7L92 118.6L129 125.6Z" fill="#7b7b7b" stroke="#7b7b7b"></path><path d="M797 347.9L802 300L772 337.9Z" fill="#ededed" stroke="#ededed"></path><path d="M767 216.3L797 205.3L751 162.4Z" fill="#aaaaaa" stroke="#aaaaaa"></path><path d="M37 303L91 288L41 252.1Z" fill="#5d5d5d" stroke="#5d5d5d"></path><path d="M83 379.7L47 394.7L95 426.6Z" fill="#dcdcdc" stroke="#dcdcdc"></path><path d="M91 288L92 254.1L41 252.1Z" fill="#aaaaaa" stroke="#aaaaaa"></path><path d="M86 79.7L129 125.6L147 80.7Z" fill="#bababa" stroke="#bababa"></path><path d="M41 252.1L92 254.1L47 218.3Z" fill="#7b7b7b" stroke="#7b7b7b"></path><path d="M796 460.4L807 424.6L778 430.6Z" fill="#ededed" stroke="#ededed"></path><path d="M727 600L724 550.1L677 548.1Z" fill="#8a8a8a" stroke="#8a8a8a"></path><path d="M92 254.1L92 219.3L47 218.3Z" fill="#6c6c6c" stroke="#6c6c6c"></path><path d="M47 218.3L92 219.3L45 159.4Z" fill="#bababa" stroke="#bababa"></path><path d="M40 509.3L100 528.3L84 485.4Z" fill="#6c6c6c" stroke="#6c6c6c"></path><path d="M84 485.4L100 528.3L138 524.3Z" fill="#dcdcdc" stroke="#dcdcdc"></path><path d="M134 550.1L122 600L185 600Z" fill="#bababa" stroke="#bababa"></path><path d="M45 159.4L92 219.3L98 158.4Z" fill="#ffffff" stroke="#ffffff"></path><path d="M37 303L35 334.9L87 351.9Z" fill="#aaaaaa" stroke="#aaaaaa"></path><path d="M130 0L147 41.9L168 29.9Z" fill="#7b7b7b" stroke="#7b7b7b"></path><path d="M168 29.9L147 41.9L189 79.7Z" fill="#6c6c6c" stroke="#6c6c6c"></path><path d="M818 255.1L767 216.3L754 269.1Z" fill="#aaaaaa" stroke="#aaaaaa"></path><path d="M751 162.4L761 118.6L710 127.6Z" fill="#5d5d5d" stroke="#5d5d5d"></path><path d="M811 127.6L761 118.6L751 162.4Z" fill="#bababa" stroke="#bababa"></path><path d="M723 35.9L682 0L661 48.9Z" fill="#6c6c6c" stroke="#6c6c6c"></path><path d="M33 422.6L54 460.4L95 426.6Z" fill="#6c6c6c" stroke="#6c6c6c"></path><path d="M33 422.6L95 426.6L47 394.7Z" fill="#bababa" stroke="#bababa"></path><path d="M758 600L750 544.1L724 550.1Z" fill="#cbcbcb" stroke="#cbcbcb"></path><path d="M724 550.1L750 544.1L705 513.3Z" fill="#8a8a8a" stroke="#8a8a8a"></path><path d="M778 430.6L807 424.6L776 370.7Z" fill="#ededed" stroke="#ededed"></path><path d="M848 297L818 255.1L802 300Z" fill="#6c6c6c" stroke="#6c6c6c"></path><path d="M796 460.4L778 430.6L761 463.4Z" fill="#cbcbcb" stroke="#cbcbcb"></path><path d="M848 297L802 300L848 344.9Z" fill="#9a9a9a" stroke="#9a9a9a"></path><path d="M802 300L818 255.1L754 269.1Z" fill="#aaaaaa" stroke="#aaaaaa"></path><path d="M798 99.7L759 95.7L761 118.6Z" fill="#8a8a8a" stroke="#8a8a8a"></path><path d="M210 0L171 0L168 29.9Z" fill="#ededed" stroke="#ededed"></path><path d="M31 125.6L45 159.4L92 118.6Z" fill="#6c6c6c" stroke="#6c6c6c"></path><path d="M806 511.3L796 460.4L761 463.4Z" fill="#ffffff" stroke="#ffffff"></path><path d="M0 416.6L33 422.6L47 394.7Z" fill="#8a8a8a" stroke="#8a8a8a"></path><path d="M813 177.4L751 162.4L797 205.3Z" fill="#bababa" stroke="#bababa"></path><path d="M761 118.6L759 95.7L715 86.7Z" fill="#aaaaaa" stroke="#aaaaaa"></path><path d="M750 544.1L767 523.3L705 513.3Z" fill="#5d5d5d" stroke="#5d5d5d"></path><path d="M86 79.7L147 80.7L95 43.9Z" fill="#dcdcdc" stroke="#dcdcdc"></path><path d="M92 118.6L45 159.4L98 158.4Z" fill="#9a9a9a" stroke="#9a9a9a"></path><path d="M0 262.1L37 303L41 252.1Z" fill="#ffffff" stroke="#ffffff"></path><path d="M0 262.1L0 305L37 303Z" fill="#aaaaaa" stroke="#aaaaaa"></path><path d="M37 303L0 305L35 334.9Z" fill="#bababa" stroke="#bababa"></path><path d="M848 344.9L824 379.7L847 393.7Z" fill="#ededed" stroke="#ededed"></path><path d="M807 424.6L824 379.7L776 370.7Z" fill="#8a8a8a" stroke="#8a8a8a"></path><path d="M723 35.9L661 48.9L715 86.7Z" fill="#8a8a8a" stroke="#8a8a8a"></path><path d="M95 43.9L147 80.7L147 41.9Z" fill="#8a8a8a" stroke="#8a8a8a"></path><path d="M40 509.3L84 485.4L54 460.4Z" fill="#5d5d5d" stroke="#5d5d5d"></path><path d="M32 569.1L99 568.1L100 528.3Z" fill="#ededed" stroke="#ededed"></path><path d="M100 528.3L99 568.1L134 550.1Z" fill="#8a8a8a" stroke="#8a8a8a"></path><path d="M762 49.9L723 35.9L715 86.7Z" fill="#ededed" stroke="#ededed"></path><path d="M99 568.1L122 600L134 550.1Z" fill="#7b7b7b" stroke="#7b7b7b"></path><path d="M847 200.3L813 177.4L797 205.3Z" fill="#8a8a8a" stroke="#8a8a8a"></path><path d="M775 0L714 0L723 35.9Z" fill="#aaaaaa" stroke="#aaaaaa"></path><path d="M668 600L727 600L677 548.1Z" fill="#7b7b7b" stroke="#7b7b7b"></path><path d="M799 571.1L806 511.3L767 523.3Z" fill="#8a8a8a" stroke="#8a8a8a"></path><path d="M0 262.1L41 252.1L0 210.3Z" fill="#8a8a8a" stroke="#8a8a8a"></path><path d="M35 334.9L0 380.7L47 394.7Z" fill="#cbcbcb" stroke="#cbcbcb"></path><path d="M0 305L0 337.9L35 334.9Z" fill="#8a8a8a" stroke="#8a8a8a"></path><path d="M130 0L95 43.9L147 41.9Z" fill="#7b7b7b" stroke="#7b7b7b"></path><path d="M32 95.7L31 125.6L92 118.6Z" fill="#ffffff" stroke="#ffffff"></path><path d="M0 210.3L41 252.1L47 218.3Z" fill="#ededed" stroke="#ededed"></path><path d="M0 210.3L47 218.3L0 177.4Z" fill="#cbcbcb" stroke="#cbcbcb"></path><path d="M0 337.9L0 380.7L35 334.9Z" fill="#ffffff" stroke="#ffffff"></path><path d="M0 457.4L40 509.3L54 460.4Z" fill="#bababa" stroke="#bababa"></path><path d="M848 344.9L802 300L797 347.9Z" fill="#5d5d5d" stroke="#5d5d5d"></path><path d="M818 255.1L847 200.3L797 205.3Z" fill="#ffffff" stroke="#ffffff"></path><path d="M0 457.4L54 460.4L33 422.6Z" fill="#5d5d5d" stroke="#5d5d5d"></path><path d="M99 568.1L96 600L122 600Z" fill="#aaaaaa" stroke="#aaaaaa"></path><path d="M847 393.7L824 379.7L807 424.6Z" fill="#9a9a9a" stroke="#9a9a9a"></path><path d="M824 379.7L848 344.9L797 347.9Z" fill="#dcdcdc" stroke="#dcdcdc"></path><path d="M171 0L130 0L168 29.9Z" fill="#6c6c6c" stroke="#6c6c6c"></path><path d="M762 49.9L715 86.7L759 95.7Z" fill="#9a9a9a" stroke="#9a9a9a"></path><path d="M723 35.9L714 0L682 0Z" fill="#aaaaaa" stroke="#aaaaaa"></path><path d="M798 99.7L762 49.9L759 95.7Z" fill="#ededed" stroke="#ededed"></path><path d="M32 569.1L96 600L99 568.1Z" fill="#7b7b7b" stroke="#7b7b7b"></path><path d="M767 523.3L806 511.3L761 463.4Z" fill="#bababa" stroke="#bababa"></path><path d="M869 418.6L847 393.7L807 424.6Z" fill="#8a8a8a" stroke="#8a8a8a"></path><path d="M799 571.1L767 523.3L750 544.1Z" fill="#6c6c6c" stroke="#6c6c6c"></path><path d="M841 127.6L811 127.6L813 177.4Z" fill="#bababa" stroke="#bababa"></path><path d="M813 177.4L811 127.6L751 162.4Z" fill="#5d5d5d" stroke="#5d5d5d"></path><path d="M0 380.7L0 416.6L47 394.7Z" fill="#bababa" stroke="#bababa"></path><path d="M855 462.4L807 424.6L796 460.4Z" fill="#cbcbcb" stroke="#cbcbcb"></path><path d="M32 95.7L92 118.6L86 79.7Z" fill="#5d5d5d" stroke="#5d5d5d"></path><path d="M0 177.4L47 218.3L45 159.4Z" fill="#5d5d5d" stroke="#5d5d5d"></path><path d="M811 127.6L798 99.7L761 118.6Z" fill="#bababa" stroke="#bababa"></path><path d="M860 261.1L847 200.3L818 255.1Z" fill="#dcdcdc" stroke="#dcdcdc"></path><path d="M811 127.6L841 96.7L798 99.7Z" fill="#dcdcdc" stroke="#dcdcdc"></path><path d="M727 600L758 600L724 550.1Z" fill="#6c6c6c" stroke="#6c6c6c"></path><path d="M900 293L860 261.1L848 297Z" fill="#ffffff" stroke="#ffffff"></path><path d="M848 297L860 261.1L818 255.1Z" fill="#cbcbcb" stroke="#cbcbcb"></path><path d="M900 327.9L848 297L848 344.9Z" fill="#aaaaaa" stroke="#aaaaaa"></path><path d="M0 138.6L0 177.4L45 159.4Z" fill="#7b7b7b" stroke="#7b7b7b"></path><path d="M0 416.6L0 457.4L33 422.6Z" fill="#aaaaaa" stroke="#aaaaaa"></path><path d="M40 509.3L32 569.1L100 528.3Z" fill="#5d5d5d" stroke="#5d5d5d"></path><path d="M31 56.9L32 95.7L86 79.7Z" fill="#cbcbcb" stroke="#cbcbcb"></path><path d="M31 125.6L0 138.6L45 159.4Z" fill="#6c6c6c" stroke="#6c6c6c"></path><path d="M31 56.9L86 79.7L95 43.9Z" fill="#5d5d5d" stroke="#5d5d5d"></path><path d="M900 218.3L856 177.4L847 200.3Z" fill="#5d5d5d" stroke="#5d5d5d"></path><path d="M847 200.3L856 177.4L813 177.4Z" fill="#cbcbcb" stroke="#cbcbcb"></path><path d="M798 99.7L802 28.9L762 49.9Z" fill="#9a9a9a" stroke="#9a9a9a"></path><path d="M0 86.7L0 138.6L31 125.6Z" fill="#8a8a8a" stroke="#8a8a8a"></path><path d="M758 600L799 571.1L750 544.1Z" fill="#aaaaaa" stroke="#aaaaaa"></path><path d="M806 511.3L855 462.4L796 460.4Z" fill="#dcdcdc" stroke="#dcdcdc"></path><path d="M847 528.3L855 462.4L806 511.3Z" fill="#9a9a9a" stroke="#9a9a9a"></path><path d="M900 395.7L900 327.9L848 344.9Z" fill="#6c6c6c" stroke="#6c6c6c"></path><path d="M856 177.4L841 127.6L813 177.4Z" fill="#cbcbcb" stroke="#cbcbcb"></path><path d="M762 49.9L775 0L723 35.9Z" fill="#7b7b7b" stroke="#7b7b7b"></path><path d="M855 462.4L869 418.6L807 424.6Z" fill="#bababa" stroke="#bababa"></path><path d="M860 261.1L900 218.3L847 200.3Z" fill="#6c6c6c" stroke="#6c6c6c"></path><path d="M130 0L84 0L95 43.9Z" fill="#ededed" stroke="#ededed"></path><path d="M32 95.7L0 86.7L31 125.6Z" fill="#5d5d5d" stroke="#5d5d5d"></path><path d="M0 457.4L0 510.3L40 509.3Z" fill="#7b7b7b" stroke="#7b7b7b"></path><path d="M0 556.1L32 569.1L40 509.3Z" fill="#7b7b7b" stroke="#7b7b7b"></path><path d="M58 0L31 56.9L95 43.9Z" fill="#8a8a8a" stroke="#8a8a8a"></path><path d="M799 571.1L847 528.3L806 511.3Z" fill="#7b7b7b" stroke="#7b7b7b"></path><path d="M758 600L796 600L799 571.1Z" fill="#dcdcdc" stroke="#dcdcdc"></path><path d="M900 116.6L841 96.7L841 127.6Z" fill="#9a9a9a" stroke="#9a9a9a"></path><path d="M841 127.6L841 96.7L811 127.6Z" fill="#6c6c6c" stroke="#6c6c6c"></path><path d="M802 28.9L775 0L762 49.9Z" fill="#ededed" stroke="#ededed"></path><path d="M846 45.9L802 28.9L798 99.7Z" fill="#ededed" stroke="#ededed"></path><path d="M861 569.1L847 528.3L799 571.1Z" fill="#aaaaaa" stroke="#aaaaaa"></path><path d="M900 414.6L900 395.7L869 418.6Z" fill="#bababa" stroke="#bababa"></path><path d="M0 50.9L0 86.7L31 56.9Z" fill="#7b7b7b" stroke="#7b7b7b"></path><path d="M31 56.9L0 86.7L32 95.7Z" fill="#cbcbcb" stroke="#cbcbcb"></path><path d="M900 395.7L847 393.7L869 418.6Z" fill="#9a9a9a" stroke="#9a9a9a"></path><path d="M900 395.7L848 344.9L847 393.7Z" fill="#8a8a8a" stroke="#8a8a8a"></path><path d="M856 177.4L900 163.4L841 127.6Z" fill="#7b7b7b" stroke="#7b7b7b"></path><path d="M900 327.9L900 293L848 297Z" fill="#6c6c6c" stroke="#6c6c6c"></path><path d="M84 0L58 0L95 43.9Z" fill="#cbcbcb" stroke="#cbcbcb"></path><path d="M0 600L34 600L32 569.1Z" fill="#5d5d5d" stroke="#5d5d5d"></path><path d="M32 569.1L34 600L96 600Z" fill="#ffffff" stroke="#ffffff"></path><path d="M900 293L900 252.1L860 261.1Z" fill="#cbcbcb" stroke="#cbcbcb"></path><path d="M0 510.3L0 556.1L40 509.3Z" fill="#8a8a8a" stroke="#8a8a8a"></path><path d="M900 414.6L869 418.6L900 465.4Z" fill="#ffffff" stroke="#ffffff"></path><path d="M900 252.1L900 218.3L860 261.1Z" fill="#9a9a9a" stroke="#9a9a9a"></path><path d="M900 465.4L869 418.6L855 462.4Z" fill="#dcdcdc" stroke="#dcdcdc"></path><path d="M802 28.9L803 0L775 0Z" fill="#7b7b7b" stroke="#7b7b7b"></path><path d="M846 45.9L803 0L802 28.9Z" fill="#5d5d5d" stroke="#5d5d5d"></path><path d="M846 45.9L798 99.7L841 96.7Z" fill="#ededed" stroke="#ededed"></path><path d="M0 0L0 50.9L31 56.9Z" fill="#ffffff" stroke="#ffffff"></path><path d="M900 523.3L855 462.4L847 528.3Z" fill="#bababa" stroke="#bababa"></path><path d="M900 523.3L900 465.4L855 462.4Z" fill="#5d5d5d" stroke="#5d5d5d"></path><path d="M900 218.3L900 163.4L856 177.4Z" fill="#cbcbcb" stroke="#cbcbcb"></path><path d="M900 82.7L846 45.9L841 96.7Z" fill="#9a9a9a" stroke="#9a9a9a"></path><path d="M796 600L861 569.1L799 571.1Z" fill="#ffffff" stroke="#ffffff"></path><path d="M0 556.1L0 600L32 569.1Z" fill="#cbcbcb" stroke="#cbcbcb"></path><path d="M900 163.4L900 116.6L841 127.6Z" fill="#9a9a9a" stroke="#9a9a9a"></path><path d="M900 543.1L900 523.3L847 528.3Z" fill="#bababa" stroke="#bababa"></path><path d="M58 0L0 0L31 56.9Z" fill="#cbcbcb" stroke="#cbcbcb"></path><path d="M796 600L866 600L861 569.1Z" fill="#7b7b7b" stroke="#7b7b7b"></path><path d="M861 569.1L900 543.1L847 528.3Z" fill="#6c6c6c" stroke="#6c6c6c"></path><path d="M900 600L900 543.1L861 569.1Z" fill="#7b7b7b" stroke="#7b7b7b"></path><path d="M900 116.6L900 82.7L841 96.7Z" fill="#ffffff" stroke="#ffffff"></path><path d="M846 45.9L868 0L803 0Z" fill="#bababa" stroke="#bababa"></path><path d="M900 40.9L868 0L846 45.9Z" fill="#cbcbcb" stroke="#cbcbcb"></path><path d="M900 82.7L900 40.9L846 45.9Z" fill="#5d5d5d" stroke="#5d5d5d"></path><path d="M866 600L900 600L861 569.1Z" fill="#8a8a8a" stroke="#8a8a8a"></path><path d="M900 40.9L900 0L868 0Z" fill="#5d5d5d" stroke="#5d5d5d"></path></g></svg>