<svg xmlns="http://www.w3.org/2000/svg" viewBox="0 0 1440 900" preserveAspectRatio="none">
  <defs>
    <!-- 各波のフォームハイライト用グラデーション -->
    <linearGradient id="foam3" x1="0" y1="0" x2="0" y2="1">
      <stop offset="0%" stop-color="#c4f0e0" stop-opacity="0.50"/>
      <stop offset="100%" stop-color="#c4f0e0" stop-opacity="0"/>
    </linearGradient>
    <linearGradient id="foam4" x1="0" y1="0" x2="0" y2="1">
      <stop offset="0%" stop-color="#caf4e4" stop-opacity="0.42"/>
      <stop offset="100%" stop-color="#caf4e4" stop-opacity="0"/>
    </linearGradient>
  </defs>

  <!-- ベース: 深海エメラルドブルー -->
  <rect width="1440" height="900" fill="#0d7280"/>

  <!-- ─────────────────────────────────────────
       Layer 1: y≈138 — 深海 / 長周期・低振幅
       カラー: 深水ティール #1688a2
  ───────────────────────────────────────── -->
  <path fill="#1688a2" d="
    M 0 140
    C 200 116, 420 164, 640 138
    C 860 112, 1060 158, 1240 130
    C 1340 116, 1410 148, 1440 138
    L 1440 900 L 0 900 Z
  "/>

  <!-- ─────────────────────────────────────────
       Layer 2: y≈258 — 深水域 / 中周期
       カラー: ティールグリーン #22a09c
  ───────────────────────────────────────── -->
  <path fill="#22a09c" d="
    M 0 260
    C 180 232, 380 288, 560 260
    C 740 232, 920 274, 1100 248
    C 1240 230, 1360 268, 1440 254
    L 1440 900 L 0 900 Z
  "/>

  <!-- ─────────────────────────────────────────
       Layer 3: y≈382 — 中層 / やや短い周期・大振幅
       カラー: エメラルドグリーン #36b89c
  ───────────────────────────────────────── -->
  <path fill="#36b89c" d="
    M 0 382
    C 160 352, 360 412, 560 382
    C 760 352, 960 404, 1160 376
    C 1300 358, 1400 394, 1440 382
    L 1440 900 L 0 900 Z
  "/>
  <!-- Layer 3 フォームハイライト (波頭に泡) -->
  <path fill="url(#foam3)" d="
    M 0 374
    C 160 344, 360 404, 560 374
    C 760 344, 960 396, 1160 368
    C 1300 350, 1400 386, 1440 374
    L 1440 382
    C 1400 394, 1300 358, 1160 376
    C 960 404, 760 352, 560 382
    C 360 412, 160 352, 0 382
    Z
  "/>

  <!-- ─────────────────────────────────────────
       Layer 4: y≈498 — 浅水域 / 最大振幅・非対称波
       カラー: 明るいエメラルド #58c8a4
  ───────────────────────────────────────── -->
  <path fill="#58c8a4" d="
    M 0 500
    C 200 468, 440 530, 660 498
    C 880 466, 1060 512, 1240 482
    C 1360 462, 1420 500, 1440 492
    L 1440 900 L 0 900 Z
  "/>
  <!-- Layer 4 フォームハイライト (波頭に泡) -->
  <path fill="url(#foam4)" d="
    M 0 492
    C 200 460, 440 522, 660 490
    C 880 458, 1060 504, 1240 474
    C 1360 454, 1420 492, 1440 484
    L 1440 500
    C 1420 500, 1360 462, 1240 482
    C 1060 512, 880 466, 660 498
    C 440 530, 200 468, 0 500
    Z
  "/>

  <!-- ─────────────────────────────────────────
       Layer 5: y≈602 — 波打ち際 / なだらか
       カラー: ライトエメラルド #80ceb0
  ───────────────────────────────────────── -->
  <path fill="#80ceb0" d="
    M 0 604
    C 240 578, 500 628, 760 600
    C 1020 572, 1240 616, 1440 594
    L 1440 900 L 0 900 Z
  "/>

  <!-- ─────────────────────────────────────────
       Layer 6: y≈708 — ウェットサンド / ティール→サンド移行
       カラー: セージグリーン #a8cbb4
  ───────────────────────────────────────── -->
  <path fill="#a8cbb4" d="
    M 0 710
    C 220 688, 480 732, 720 706
    C 960 680, 1200 722, 1440 700
    L 1440 900 L 0 900 Z
  "/>

  <!-- ─────────────────────────────────────────
       Layer 7: y≈808 — 砂浜 / 最もなだらか
       カラー: サンドベージュ #c8c4a0
  ───────────────────────────────────────── -->
  <path fill="#c8c4a0" d="
    M 0 808
    C 280 790, 580 826, 860 806
    C 1140 786, 1340 820, 1440 806
    L 1440 900 L 0 900 Z
  "/>

</svg>
