<svg xmlns="http://www.w3.org/2000/svg" viewBox="0 0 1440 900" preserveAspectRatio="none">

  <!-- Base: deep ocean teal -->
  <rect width="1440" height="900" fill="#1c8892"/>

  <!-- Layer 1: y≈132 — 深海 / 長周期・低振幅 -->
  <path fill="#279aa4" d="
    M 0 132
    C 200 110, 380 154, 540 130
    C 700 106, 880 150, 1060 128
    C 1200 112, 1340 150, 1440 136
    L 1440 900 L 0 900 Z
  "/>

  <!-- Layer 2: y≈250 — 深水 / 中周期・やや大振幅 -->
  <path fill="#34aaa0" d="
    M 0 252
    C 160 226, 360 276, 520 250
    C 680 224, 840 268, 1040 244
    C 1180 226, 1340 266, 1440 250
    L 1440 900 L 0 900 Z
  "/>

  <!-- Layer 3: y≈368 — 中層 / 位相をずらして変化 -->
  <path fill="#46bca0" d="
    M 0 365
    C 240 340, 440 390, 640 365
    C 840 340, 1020 384, 1200 360
    C 1320 342, 1400 376, 1440 366
    L 1440 900 L 0 900 Z
  "/>

  <!-- Layer 4: y≈482 — 中浅層 / 振幅大きめ・非対称 -->
  <path fill="#60c8a6" d="
    M 0 484
    C 180 456, 400 512, 600 482
    C 800 452, 1000 500, 1180 474
    C 1300 456, 1400 494, 1440 482
    L 1440 900 L 0 900 Z
  "/>

  <!-- Layer 5: y≈590 — 浅瀬 / 穏やかな波 -->
  <path fill="#84ceb0" d="
    M 0 588
    C 220 564, 460 610, 680 584
    C 900 558, 1120 600, 1300 576
    C 1380 562, 1430 590, 1440 584
    L 1440 900 L 0 900 Z
  "/>

  <!-- Layer 6: y≈692 — 波打ち際 / ティール→サンド移行 -->
  <path fill="#a6c8b4" d="
    M 0 694
    C 200 674, 440 716, 660 690
    C 880 664, 1080 708, 1280 684
    C 1380 668, 1430 696, 1440 690
    L 1440 900 L 0 900 Z
  "/>

  <!-- Layer 7: y≈790 — 砂浜 / 非常になだらか -->
  <path fill="#c4c0a0" d="
    M 0 792
    C 260 774, 540 812, 800 790
    C 1060 768, 1280 804, 1440 788
    L 1440 900 L 0 900 Z
  "/>

</svg>
